<svg width="8" height="8" viewBox="0 0 8 8" fill="none" xmlns="http://www.w3.org/2000/svg">
<path fill-rule="evenodd" clip-rule="evenodd" d="M2.18182 2.38419e-07L7.63636 0C7.73281 0 7.8253 0.0383116 7.89349 0.106507C7.96169 0.174702 8 0.267194 8 0.363636V5.81818C8 6.01901 7.83719 6.18182 7.63636 6.18182C7.43553 6.18182 7.27273 6.01901 7.27273 5.81818V1.24153L0.620766 7.89349C0.478757 8.0355 0.248515 8.0355 0.106507 7.89349C-0.0355022 7.75148 -0.0355022 7.52124 0.106507 7.37923L6.75847 0.727273L2.18182 0.727273C1.98099 0.727273 1.81818 0.564467 1.81818 0.363636C1.81818 0.162806 1.98099 2.38419e-07 2.18182 2.38419e-07Z" fill="#FAFDFF"/>
</svg>
