<svg width="1280" height="62" viewBox="0 0 1280 62" fill="none" xmlns="http://www.w3.org/2000/svg">
<path d="M-1.79688 5C14.4987 5 14.4987 55.4402 30.7943 55.4402C47.0899 55.4402 47.0899 5 63.3855 5C79.6811 5 79.6811 55.4402 95.9384 55.4402C112.235 55.4402 112.235 5 128.491 5C144.787 5 144.787 55.4402 161.044 55.4402C177.34 55.4402 177.34 5 193.635 5C209.931 5 209.931 55.4402 226.227 55.4402C242.522 55.4402 242.522 5 258.818 5C275.113 5 275.113 55.4402 291.409 55.4402C307.704 55.4402 307.704 5 324 5" stroke="#0095FF" stroke-width="10" stroke-miterlimit="10" stroke-linecap="round"/>
<path d="M321.797 56.7531C305.501 56.7531 305.501 6.31289 289.206 6.31289C272.91 6.31289 272.91 56.7531 256.615 56.7531C240.319 56.7531 240.319 6.31288 224.062 6.31288C207.765 6.31288 207.765 56.7531 191.509 56.7531C175.213 56.7531 175.213 6.31288 158.956 6.31288C142.66 6.31288 142.66 56.7531 126.365 56.7531C110.069 56.7531 110.069 6.31287 93.7731 6.31287C77.4784 6.31287 77.4784 56.7531 61.1825 56.7531C44.8865 56.7531 44.8865 6.31287 28.5906 6.31287C12.2958 6.31287 12.2958 56.7531 -4.00014 56.7531" stroke="#00D5E0" stroke-width="10" stroke-miterlimit="10" stroke-linecap="round"/>
<path d="M78.7947 46.0649L72.4258 27.4077C73.8955 21.0323 78.6723 11.3755 78.9172 11.3755C79.5296 11.7506 85.2862 27.0326 85.2862 27.5952C84.3063 31.1204 80.5503 41.3772 78.7947 46.0649Z" fill="#003BDE"/>
<path d="M13.6365 46.0649L7.26758 27.4077C8.73734 21.0323 13.5141 11.3755 13.759 11.3755C14.3714 11.7506 20.128 27.0326 20.128 27.5952C19.1481 31.1204 15.3921 41.3772 13.6365 46.0649Z" fill="#003BDE"/>
<path d="M143.848 46.0639L137.595 27.3836C139.105 21.0137 143.942 11.3745 144.187 11.3754C144.797 11.7526 150.458 27.0556 150.454 27.6181C149.453 31.1397 145.632 41.3826 143.848 46.0639Z" fill="#003BDE"/>
<path d="M209.355 46.0647L202.844 27.4361C204.266 21.0543 208.969 11.3765 209.214 11.3754C209.829 11.7477 215.702 27.0039 215.706 27.5664C214.753 31.0959 211.075 41.3692 209.355 46.0647Z" fill="#003BDE"/>
<path d="M274.273 46.0639L268.021 27.3836C269.531 21.0137 274.368 11.3745 274.612 11.3754C275.223 11.7526 280.884 27.0556 280.88 27.6181C279.878 31.1397 276.058 41.3826 274.273 46.0639Z" fill="#003BDE"/>
<path d="M327.203 5C343.499 5 343.499 55.4402 359.794 55.4402C376.09 55.4402 376.09 5 392.385 5C408.681 5 408.681 55.4402 424.938 55.4402C441.235 55.4402 441.235 5 457.491 5C473.787 5 473.787 55.4402 490.044 55.4402C506.34 55.4402 506.34 5 522.635 5C538.931 5 538.931 55.4402 555.227 55.4402C571.522 55.4402 571.522 5 587.818 5C604.113 5 604.113 55.4402 620.409 55.4402C636.704 55.4402 636.704 5 653 5" stroke="#0095FF" stroke-width="10" stroke-miterlimit="10" stroke-linecap="round"/>
<path d="M650.797 56.7531C634.501 56.7531 634.501 6.31289 618.206 6.31289C601.91 6.31289 601.91 56.7531 585.615 56.7531C569.319 56.7531 569.319 6.31288 553.062 6.31288C536.765 6.31288 536.765 56.7531 520.509 56.7531C504.213 56.7531 504.213 6.31288 487.956 6.31288C471.66 6.31288 471.66 56.7531 455.365 56.7531C439.069 56.7531 439.069 6.31287 422.773 6.31287C406.478 6.31287 406.478 56.7531 390.182 56.7531C373.887 56.7531 373.887 6.31287 357.591 6.31287C341.296 6.31287 341.296 56.7531 325 56.7531" stroke="#00D5E0" stroke-width="10" stroke-miterlimit="10" stroke-linecap="round"/>
<path d="M407.795 46.0649L401.426 27.4077C402.896 21.0323 407.672 11.3755 407.917 11.3755C408.53 11.7506 414.286 27.0326 414.286 27.5952C413.306 31.1204 409.55 41.3772 407.795 46.0649Z" fill="#003BDE"/>
<path d="M342.637 46.0649L336.268 27.4077C337.737 21.0323 342.514 11.3755 342.759 11.3755C343.371 11.7506 349.128 27.0326 349.128 27.5952C348.148 31.1204 344.392 41.3772 342.637 46.0649Z" fill="#003BDE"/>
<path d="M472.848 46.0639L466.595 27.3836C468.105 21.0137 472.942 11.3745 473.187 11.3754C473.797 11.7526 479.458 27.0556 479.454 27.6181C478.453 31.1397 474.632 41.3826 472.848 46.0639Z" fill="#003BDE"/>
<path d="M538.355 46.0647L531.844 27.4361C533.266 21.0543 537.969 11.3765 538.214 11.3754C538.829 11.7477 544.702 27.0039 544.706 27.5664C543.753 31.0959 540.075 41.3692 538.355 46.0647Z" fill="#003BDE"/>
<path d="M603.273 46.0639L597.021 27.3836C598.531 21.0137 603.368 11.3745 603.612 11.3754C604.223 11.7526 609.884 27.0556 609.88 27.6181C608.878 31.1397 605.058 41.3826 603.273 46.0639Z" fill="#003BDE"/>
<path d="M656.203 5C672.499 5 672.499 55.4402 688.794 55.4402C705.09 55.4402 705.09 5 721.385 5C737.681 5 737.681 55.4402 753.938 55.4402C770.235 55.4402 770.235 5 786.491 5C802.787 5 802.787 55.4402 819.044 55.4402C835.34 55.4402 835.34 5 851.635 5C867.931 5 867.931 55.4402 884.227 55.4402C900.522 55.4402 900.522 5 916.818 5C933.113 5 933.113 55.4402 949.409 55.4402C965.704 55.4402 965.704 5 982 5" stroke="#0095FF" stroke-width="10" stroke-miterlimit="10" stroke-linecap="round"/>
<path d="M979.797 56.7531C963.501 56.7531 963.501 6.31289 947.206 6.31289C930.91 6.31289 930.91 56.7531 914.615 56.7531C898.319 56.7531 898.319 6.31288 882.062 6.31288C865.765 6.31288 865.765 56.7531 849.509 56.7531C833.213 56.7531 833.213 6.31288 816.956 6.31288C800.66 6.31288 800.66 56.7531 784.365 56.7531C768.069 56.7531 768.069 6.31287 751.773 6.31287C735.478 6.31287 735.478 56.7531 719.182 56.7531C702.887 56.7531 702.887 6.31287 686.591 6.31287C670.296 6.31287 670.296 56.7531 654 56.7531" stroke="#00D5E0" stroke-width="10" stroke-miterlimit="10" stroke-linecap="round"/>
<path d="M736.795 46.0649L730.426 27.4077C731.896 21.0323 736.672 11.3755 736.917 11.3755C737.53 11.7506 743.286 27.0326 743.286 27.5952C742.306 31.1204 738.55 41.3772 736.795 46.0649Z" fill="#003BDE"/>
<path d="M671.637 46.0649L665.268 27.4077C666.737 21.0323 671.514 11.3755 671.759 11.3755C672.371 11.7506 678.128 27.0326 678.128 27.5952C677.148 31.1204 673.392 41.3772 671.637 46.0649Z" fill="#003BDE"/>
<path d="M801.848 46.0639L795.595 27.3836C797.105 21.0137 801.942 11.3745 802.187 11.3754C802.797 11.7526 808.458 27.0556 808.454 27.6181C807.453 31.1397 803.632 41.3826 801.848 46.0639Z" fill="#003BDE"/>
<path d="M867.355 46.0647L860.844 27.4361C862.266 21.0543 866.969 11.3765 867.214 11.3754C867.829 11.7477 873.702 27.0039 873.706 27.5664C872.753 31.0959 869.075 41.3692 867.355 46.0647Z" fill="#003BDE"/>
<path d="M932.273 46.0639L926.021 27.3836C927.531 21.0137 932.368 11.3745 932.612 11.3754C933.223 11.7526 938.884 27.0556 938.88 27.6181C937.878 31.1397 934.058 41.3826 932.273 46.0639Z" fill="#003BDE"/>
<path d="M985.203 5C1001.5 5 1001.5 55.4402 1017.79 55.4402C1034.09 55.4402 1034.09 5 1050.39 5C1066.68 5 1066.68 55.4402 1082.94 55.4402C1099.23 55.4402 1099.23 5 1115.49 5C1131.79 5 1131.79 55.4402 1148.04 55.4402C1164.34 55.4402 1164.34 5 1180.63 5C1196.93 5 1196.93 55.4402 1213.23 55.4402C1229.52 55.4402 1229.52 5 1245.82 5C1262.11 5 1262.11 55.4402 1278.41 55.4402C1294.7 55.4402 1294.7 5 1311 5" stroke="#0095FF" stroke-width="10" stroke-miterlimit="10" stroke-linecap="round"/>
<path d="M1308.8 56.7531C1292.5 56.7531 1292.5 6.31289 1276.21 6.31289C1259.91 6.31289 1259.91 56.7531 1243.61 56.7531C1227.32 56.7531 1227.32 6.31288 1211.06 6.31288C1194.77 6.31288 1194.77 56.7531 1178.51 56.7531C1162.21 56.7531 1162.21 6.31288 1145.96 6.31288C1129.66 6.31288 1129.66 56.7531 1113.37 56.7531C1097.07 56.7531 1097.07 6.31287 1080.77 6.31287C1064.48 6.31287 1064.48 56.7531 1048.18 56.7531C1031.89 56.7531 1031.89 6.31287 1015.59 6.31287C999.296 6.31287 999.296 56.7531 983 56.7531" stroke="#00D5E0" stroke-width="10" stroke-miterlimit="10" stroke-linecap="round"/>
<path d="M1065.79 46.0649L1059.43 27.4077C1060.9 21.0323 1065.67 11.3755 1065.92 11.3755C1066.53 11.7506 1072.29 27.0326 1072.29 27.5952C1071.31 31.1204 1067.55 41.3772 1065.79 46.0649Z" fill="#003BDE"/>
<path d="M1000.64 46.0649L994.268 27.4077C995.737 21.0323 1000.51 11.3755 1000.76 11.3755C1001.37 11.7506 1007.13 27.0326 1007.13 27.5952C1006.15 31.1204 1002.39 41.3772 1000.64 46.0649Z" fill="#003BDE"/>
<path d="M1130.85 46.0639L1124.6 27.3836C1126.1 21.0137 1130.94 11.3745 1131.19 11.3754C1131.8 11.7526 1137.46 27.0556 1137.45 27.6181C1136.45 31.1397 1132.63 41.3826 1130.85 46.0639Z" fill="#003BDE"/>
<path d="M1196.35 46.0647L1189.84 27.4361C1191.27 21.0543 1195.97 11.3765 1196.21 11.3754C1196.83 11.7477 1202.7 27.0039 1202.71 27.5664C1201.75 31.0959 1198.07 41.3692 1196.35 46.0647Z" fill="#003BDE"/>
<path d="M1261.27 46.0639L1255.02 27.3836C1256.53 21.0137 1261.37 11.3745 1261.61 11.3754C1262.22 11.7526 1267.88 27.0556 1267.88 27.6181C1266.88 31.1397 1263.06 41.3826 1261.27 46.0639Z" fill="#003BDE"/>
</svg>
