<svg width="40" height="40" viewBox="0 0 40 40" fill="none" xmlns="http://www.w3.org/2000/svg">
<rect x="0.3" y="0.3" width="39.4" height="39.4" rx="19.7" stroke="white" stroke-width="0.6"/>
<path d="M26.3616 14.1638C25.1978 13.6213 23.9378 13.2275 22.6253 13C22.6138 12.9997 22.6024 13.0018 22.5918 13.0064C22.5812 13.0109 22.5718 13.0177 22.5641 13.0263C22.4066 13.315 22.2228 13.6913 22.1003 13.98C20.7082 13.77 19.2925 13.77 17.9003 13.98C17.7778 13.6825 17.5941 13.315 17.4278 13.0263C17.4191 13.0088 17.3928 13 17.3666 13C16.0541 13.2275 14.8028 13.6213 13.6303 14.1638C13.6216 14.1638 13.6128 14.1725 13.6041 14.1813C11.2241 17.7425 10.5678 21.2075 10.8916 24.6375C10.8916 24.655 10.9003 24.6725 10.9178 24.6813C12.4928 25.8363 14.0066 26.5363 15.5028 27C15.5291 27.0088 15.5553 27 15.5641 26.9825C15.9141 26.5013 16.2291 25.9938 16.5003 25.46C16.5178 25.425 16.5003 25.39 16.4653 25.3813C15.9666 25.1888 15.4941 24.9613 15.0303 24.6988C14.9953 24.6813 14.9953 24.6288 15.0216 24.6025C15.1178 24.5325 15.2141 24.4538 15.3103 24.3838C15.3278 24.3663 15.3541 24.3663 15.3716 24.375C18.3816 25.7488 21.6278 25.7488 24.6028 24.375C24.6203 24.3663 24.6466 24.3663 24.6641 24.3838C24.7603 24.4625 24.8566 24.5325 24.9528 24.6113C24.9878 24.6375 24.9878 24.69 24.9441 24.7075C24.4891 24.9788 24.0078 25.1975 23.5091 25.39C23.4741 25.3988 23.4653 25.4425 23.4741 25.4688C23.7541 26.0025 24.0691 26.51 24.4103 26.9913C24.4366 27 24.4628 27.0088 24.4891 27C25.9941 26.5363 27.5078 25.8363 29.0828 24.6813C29.1003 24.6725 29.1091 24.655 29.1091 24.6375C29.4941 20.6738 28.4703 17.235 26.3966 14.1813C26.3878 14.1725 26.3791 14.1638 26.3616 14.1638ZM16.9553 22.5463C16.0541 22.5463 15.3016 21.715 15.3016 20.6913C15.3016 19.6675 16.0366 18.8363 16.9553 18.8363C17.8828 18.8363 18.6178 19.6763 18.6091 20.6913C18.6091 21.715 17.8741 22.5463 16.9553 22.5463ZM23.0541 22.5463C22.1528 22.5463 21.4003 21.715 21.4003 20.6913C21.4003 19.6675 22.1353 18.8363 23.0541 18.8363C23.9816 18.8363 24.7166 19.6763 24.7078 20.6913C24.7078 21.715 23.9816 22.5463 23.0541 22.5463Z" fill="white"/>
</svg>
