<svg width="20" height="19" viewBox="0 0 20 19" fill="none" xmlns="http://www.w3.org/2000/svg">
<path fill-rule="evenodd" clip-rule="evenodd" d="M3.17004 0.3125C2.43289 0.3125 1.72594 0.589062 1.2047 1.08134C0.683455 1.57363 0.390625 2.24131 0.390625 2.9375V16.0625C0.390625 16.7587 0.683455 17.4264 1.2047 17.9187C1.72594 18.4109 2.43289 18.6875 3.17004 18.6875H17.0671C17.8042 18.6875 18.5112 18.4109 19.0324 17.9187C19.5537 17.4264 19.8465 16.7587 19.8465 16.0625V2.9375C19.8465 2.24131 19.5537 1.57363 19.0324 1.08134C18.5112 0.589062 17.8042 0.3125 17.0671 0.3125H3.17004ZM4.70149 5.95231C5.14194 5.95231 5.56434 5.78707 5.87578 5.49293C6.18722 5.19879 6.36219 4.79985 6.36219 4.38388C6.36219 3.9679 6.18722 3.56896 5.87578 3.27482C5.56434 2.98068 5.14194 2.81544 4.70149 2.81544C4.26105 2.81544 3.83864 2.98068 3.5272 3.27482C3.21576 3.56896 3.04079 3.9679 3.04079 4.38388C3.04079 4.79985 3.21576 5.19879 3.5272 5.49293C3.83864 5.78707 4.26105 5.95231 4.70149 5.95231ZM6.0912 15.8171V7.18213H3.31179V15.8171H6.0912ZM7.93673 7.18213H10.7161V8.33844C11.1261 7.73206 12.0266 6.91569 13.7012 6.91569C15.6996 6.91569 16.785 8.1665 16.785 10.5461C16.785 10.6602 16.7961 11.1813 16.7961 11.1813V15.8158H14.0167V11.1826C14.0167 10.5461 13.8749 9.29525 12.3768 9.29525C10.8773 9.29525 10.7509 10.8676 10.7161 11.8966V15.8158H7.93673V7.18213Z" fill="white"/>
</svg>
