<svg width="40" height="40" viewBox="0 0 40 40" fill="none" xmlns="http://www.w3.org/2000/svg">
<rect x="0.3" y="0.3" width="39.4" height="39.4" rx="19.7" stroke="white" stroke-width="0.6"/>
<path fill-rule="evenodd" clip-rule="evenodd" d="M14.375 12.5625C13.7783 12.5625 13.206 12.7864 12.784 13.1849C12.3621 13.5834 12.125 14.1239 12.125 14.6875V25.3125C12.125 25.8761 12.3621 26.4166 12.784 26.8151C13.206 27.2136 13.7783 27.4375 14.375 27.4375H25.625C26.2217 27.4375 26.794 27.2136 27.216 26.8151C27.6379 26.4166 27.875 25.8761 27.875 25.3125V14.6875C27.875 14.1239 27.6379 13.5834 27.216 13.1849C26.794 12.7864 26.2217 12.5625 25.625 12.5625H14.375ZM15.6148 17.1281C15.9713 17.1281 16.3132 16.9943 16.5654 16.7562C16.8175 16.5181 16.9591 16.1951 16.9591 15.8584C16.9591 15.5216 16.8175 15.1987 16.5654 14.9606C16.3132 14.7225 15.9713 14.5887 15.6148 14.5887C15.2582 14.5887 14.9163 14.7225 14.6641 14.9606C14.412 15.1987 14.2704 15.5216 14.2704 15.8584C14.2704 16.1951 14.412 16.5181 14.6641 16.7562C14.9163 16.9943 15.2582 17.1281 15.6148 17.1281ZM16.7398 25.1138V18.1236H14.4897V25.1138H16.7398ZM18.2337 18.1236H20.4838V19.0597C20.8156 18.5688 21.5446 17.9079 22.9003 17.9079C24.518 17.9079 25.3966 18.9205 25.3966 20.8468C25.3966 20.9392 25.4056 21.3611 25.4056 21.3611V25.1128H23.1556V21.3621C23.1556 20.8468 23.0409 19.8342 21.8281 19.8342C20.6143 19.8342 20.5119 21.1071 20.4838 21.9401V25.1128H18.2337V18.1236Z" fill="white"/>
</svg>
