<svg width="130" height="133" viewBox="0 0 130 133" fill="none" xmlns="http://www.w3.org/2000/svg">
<path d="M32.504 0.887916C32.5783 0.305612 33.4217 0.30561 33.496 0.887914L37.024 28.5433C37.0528 28.7693 37.2307 28.9472 37.4567 28.976L65.1121 32.504C65.6944 32.5783 65.6944 33.4217 65.1121 33.496L37.4567 37.024C37.2307 37.0528 37.0528 37.2307 37.024 37.4567L33.496 65.1121C33.4217 65.6944 32.5783 65.6944 32.504 65.1121L28.976 37.4567C28.9472 37.2307 28.7693 37.0528 28.5433 37.024L0.887901 33.496C0.305597 33.4217 0.305595 32.5783 0.887899 32.504L28.5433 28.976C28.7693 28.9472 28.9472 28.7693 28.976 28.5433L32.504 0.887916Z" fill="#000D31"/>
<path d="M96.504 67.8879C96.5783 67.3056 97.4217 67.3056 97.496 67.8879L101.024 95.5433C101.053 95.7693 101.231 95.9472 101.457 95.976L129.112 99.504C129.694 99.5783 129.694 100.422 129.112 100.496L101.457 104.024C101.231 104.053 101.053 104.231 101.024 104.457L97.496 132.112C97.4217 132.694 96.5783 132.694 96.504 132.112L92.976 104.457C92.9472 104.231 92.7693 104.053 92.5433 104.024L64.8879 100.496C64.3056 100.422 64.3056 99.5783 64.8879 99.504L92.5433 95.976C92.7693 95.9472 92.9472 95.7693 92.976 95.5433L96.504 67.8879Z" fill="#000D31"/>
</svg>
